<?xml version="1.0" encoding="iso-8859-1"?>
<!-- Uploaded to: SVG Repo, www.svgrepo.com, Generator: SVG Repo Mixer Tools -->
<!DOCTYPE svg PUBLIC "-//W3C//DTD SVG 1.1//EN" "http://www.w3.org/Graphics/SVG/1.1/DTD/svg11.dtd">
<svg fill="#000000" version="1.1" id="Capa_1" xmlns="http://www.w3.org/2000/svg" xmlns:xlink="http://www.w3.org/1999/xlink" 
	 width="800px" height="800px" viewBox="0 0 382.421 382.422"
	 xml:space="preserve">
<g>
	<path d="M297.214,80.934V51.36H83.347v28.365c-22.312,14.323-33.62,37.431-33.62,68.758v145.688
		c0,58.56,40.534,88.251,120.473,88.251h42.023c79.948,0,120.472-29.691,120.472-88.251V148.482
		C332.695,118.258,320.766,95.56,297.214,80.934z M315.885,294.175c0,48.076-33.905,71.442-103.662,71.442H170.2
		c-69.752,0-103.662-23.366-103.662-71.442V148.489c0-27.115,9.588-45.651,29.316-56.667l4.304-2.405V68.17h180.248v22.569
		l4.366,2.394c20.937,11.453,31.114,29.558,31.114,55.35V294.175z M78.098,27.316V11.207C78.098,5.021,83.118,0,89.304,0h203.819
		c6.192,0,11.206,5.021,11.206,11.207v16.109c0,6.187-5.014,11.207-11.206,11.207H89.304C83.118,38.522,78.098,33.502,78.098,27.316
		z M191.211,135.33c-48.408,0-87.781,39.383-87.781,87.785c0,48.41,39.373,87.795,87.781,87.795
		c40.746,0,75.075-27.903,84.936-65.588l1.532-7.153c0.849-4.897,1.319-9.921,1.319-15.054
		C279.004,174.713,239.617,135.33,191.211,135.33z M268.27,236.932c-13.242,6.944-36.764-1.801-38.908,18.599
		c-0.919,11.975,9.554,17.533,13.188,26.628c-10.493,9.149-23.441,15.534-37.724,18.052c2.014-1.494,3.272-3.918,3.857-6.323
		c1.308-5.393-3.441-9.638-3.896-14.782c-0.619-7.004-2.167-16.701-11.15-17.007c-3.584-0.115-8.254,1.86-11.324-0.559
		c-2.829-2.232-5.239-4.497-8.948-5.012c-8.706-1.204-15.705,6.664-18.1,14.228c-2.309,7.276,0.273,15.562,2.101,22.96
		c-11.105-5.352-20.76-13.258-28.213-22.939c6.534,2.967,13.073,2.487,13.725-6.259c0.79-10.571-17.238-20.203-17.869-30.852
		c0.78-2.122,1.333-4.782,1.686-7.683c3.317-6.851,9.873-11.491,5.227-21.768c-1.931-4.717-7.933-7.288-13.844-8.985
		c6.402-16.73,18.377-30.716,33.659-39.683c24.558,17.82,2.055,59.262,25.433,71.509c20.17,9.484,9.485-23.728,26.101-24.914
		c5.934,0,8.296,10.675,13.046,13.051c3.562,1.187,10.682-5.938,21.352,2.965c10.684,8.898,11.075-1.587,13.452-12.262
		c1.181-10.682-11.083-9.691-11.083-15.622c-2.374-17.796,5.938-18.986-9.483-34.407c-0.355-0.353-0.754-0.717-1.148-1.075
		c23.913,13.42,40.11,39.006,40.11,68.312C269.516,227.837,269.069,232.439,268.27,236.932z"/>
</g>
</svg>